<svg width="24" height="34" viewBox="0 0 24 34" fill="none" xmlns="http://www.w3.org/2000/svg">
<path d="M23.0822 0.748392C23.6699 1.22773 24 1.87777 24 2.55556C24 3.23334 23.6699 3.88338 23.0822 4.36272L7.56616 17.0154L23.0822 29.6681C23.6532 30.1502 23.9692 30.7959 23.962 31.4661C23.9549 32.1363 23.6252 32.7774 23.0441 33.2513C22.4629 33.7253 21.6767 33.9941 20.8548 33.9999C20.033 34.0057 19.2412 33.7481 18.65 33.2825L0.917757 18.8226C0.330117 18.3433 0 17.6932 0 17.0154C0 16.3376 0.330117 15.6876 0.917757 15.2083L18.65 0.748392C19.2378 0.269197 20.0349 0 20.8661 0C21.6973 0 22.4944 0.269197 23.0822 0.748392V0.748392Z" fill="white"/>
</svg>
